<?xml version="1.0" encoding="utf-8"?>
<!-- Generator: Adobe Illustrator 22.1.0, SVG Export Plug-In . SVG Version: 6.00 Build 0)  -->
<svg version="1.1" id="Layer_1" xmlns="http://www.w3.org/2000/svg" xmlns:xlink="http://www.w3.org/1999/xlink" x="0px" y="0px"
	 viewBox="0 0 512 512" style="enable-background:new 0 0 512 512;" xml:space="preserve">
<g>
	<path d="M144.5,227.3L80.1,115.7C121.3,64.1,184.8,31,256,31c82.4,0,154.4,44.3,193.6,110.3H266c-3.3-0.3-6.6-0.4-10-0.4
		C202.4,140.9,157.3,177.6,144.5,227.3L144.5,227.3z M336.5,173.8h129c10,25.5,15.5,53.2,15.5,82.2c0,123.4-99.4,223.6-222.4,225
		l92-159.4c13-18.6,20.6-41.2,20.6-65.6C371.1,223.9,357.9,194.8,336.5,173.8z M174.3,256c0-45.1,36.7-81.7,81.7-81.7
		s81.7,36.7,81.7,81.7S301,337.8,256,337.8S174.3,301.1,174.3,256z M286.8,367l-64.4,111.6C114.1,462.3,31,368.9,31,256
		c0-40.1,10.5-77.7,28.9-110.3l91.9,159.1c18.4,39.1,58.2,66.3,104.3,66.3C266.7,371.2,277,369.7,286.8,367L286.8,367z"/>
</g>
</svg>
